HIERARCHY
ROOT hip
{
	OFFSET 0.000000 0.000000 0.000000 
	CHANNELS 6 Xposition Yposition Zposition Xrotation Zrotation Yrotation
	JOINT abdomen
	{
		OFFSET 0.000000 3.402643 0.000000 
		CHANNELS 3 Xrotation Zrotation Yrotation
		JOINT chest
		{
			OFFSET 0.000000 8.438565 -0.680529 
			CHANNELS 3 Xrotation Zrotation Yrotation
			JOINT neck
			{
				OFFSET 0.000000 10.207942 -0.272212 
				CHANNELS 3 Xrotation Zrotation Yrotation
				JOINT head
				{
					OFFSET 0.000000 3.130431 0.000000 
					CHANNELS 3 Xrotation Zrotation Yrotation
					End Site
					{
						OFFSET 0.000000 3.130435 0.000000 
					}
				}
			}
			JOINT lCollar
			{
				OFFSET 3.470700 6.669187 -0.816635 
				CHANNELS 3 Yrotation Zrotation Xrotation
				JOINT lShldr
				{
					OFFSET 3.198488 0.000000 0.000000 
					CHANNELS 3 Zrotation Yrotation Xrotation
					JOINT lForeArm
					{
						OFFSET 10.139888 0.000000 0.000000 
						CHANNELS 3 Yrotation Zrotation Xrotation
						JOINT lHand
						{
							OFFSET 8.370511 0.000000 0.000000 
							CHANNELS 3 Zrotation Yrotation Xrotation
							End Site
							{
								OFFSET 4.083176 0.000000 0.000000 
							}
						}
					}
				}
			}
			JOINT rCollar
			{
				OFFSET -3.470700 6.669187 -0.816635 
				CHANNELS 3 Yrotation Zrotation Xrotation
				JOINT rShldr
				{
					OFFSET -3.198488 0.000000 0.000000 
					CHANNELS 3 Zrotation Yrotation Xrotation
					JOINT rForeArm
					{
						OFFSET -10.139888 0.000000 0.000000 
						CHANNELS 3 Yrotation Zrotation Xrotation
						JOINT rHand
						{
							OFFSET -8.370511 0.000000 0.000000 
							CHANNELS 3 Zrotation Yrotation Xrotation
							End Site
							{
								OFFSET -4.083176 0.000000 0.000000 
							}
						}
					}
				}
			}
		}
	}
	JOINT lThigh
	{
		OFFSET 5.308129 -1.633274 1.361059 
		CHANNELS 3 Xrotation Zrotation Yrotation
		JOINT lShin
		{
			OFFSET -2.041588 -20.007561 0.000000 
			CHANNELS 3 Xrotation Zrotation Yrotation
			JOINT lFoot
			{
				OFFSET 0.000000 -19.190928 -1.224953 
				CHANNELS 3 Xrotation Yrotation Zrotation
				End Site
				{
					OFFSET 0.000000 -2.449906 4.627600 
				}
			}
		}
	}
	JOINT rThigh
	{
		OFFSET -5.308129 -1.633274 1.361059 
		CHANNELS 3 Xrotation Zrotation Yrotation
		JOINT rShin
		{
			OFFSET 2.041588 -20.007561 0.000000 
			CHANNELS 3 Xrotation Zrotation Yrotation
			JOINT rFoot
			{
				OFFSET 0.000000 -19.190928 -1.224953 
				CHANNELS 3 Xrotation Yrotation Zrotation
				End Site
				{
					OFFSET 0.000000 -2.449906 4.627600 
				}
			}
		}
	}
}
MOTION
Frames: 6
Frame Time: 0.016667
-0.336347 39.922405 -31.041462 -142.031006 0.126953 0.107443 20.725676 -0.537101 -0.322343 -5.292969 0.000000 0.000000 -50.619389 -2.040968 0.390725 5.588009 2.050767 -0.214706 0.000000 0.000000 0.000000 -83.272171 148.484344 -1.280264 -0.687263 -5.954307 6.037358 90.299957 -75.019524 -7.333467 0.000000 0.000000 0.000000 81.447220 -148.273605 -0.503148 -0.042892 3.133475 5.075717 -5.301752 92.377831 78.232094 65.070786 4.023610 -0.368264 56.519020 -2.673752 -3.694613 63.457520 0.120327 -0.387085 -70.645798 -5.458671 -0.564000 -8.490589 4.987045 -0.490935 53.767616 0.504328 -0.071537 
-0.336347 40.653282 -32.867939 -149.765427 0.136719 0.087914 20.725676 -0.537101 -0.322343 -3.525390 0.000000 0.000000 -50.619389 -2.040968 0.390725 5.588009 2.050767 -0.214706 0.000000 0.000000 0.000000 -83.108810 154.098770 -0.954884 -0.687263 -5.954307 6.037358 90.299957 -75.019524 -7.333467 0.000000 0.000000 0.000000 81.369873 -153.893433 -0.292000 -0.042892 3.133475 5.075717 -5.301752 92.377831 78.232094 67.364410 4.033594 -0.332862 55.815910 -2.691516 -3.620253 61.865715 0.089511 -0.390473 -72.404869 -5.458614 -0.634753 -6.584839 4.994791 -0.306047 54.812649 0.505946 -0.093772 
-0.336347 41.225006 -34.238304 -157.499847 0.146484 0.058619 20.725676 -0.537101 -0.322343 -1.777344 0.000000 0.000000 -50.619389 -2.040968 0.390725 5.588009 2.050767 -0.214706 0.000000 0.000000 0.000000 -82.989281 159.908508 -0.696944 -0.687263 -5.954307 6.037358 90.299957 -75.019524 -7.333467 0.000000 0.000000 0.000000 81.314690 -159.695908 -0.153437 -0.042892 3.133475 5.075717 -5.301752 92.377831 78.232094 69.645996 4.043130 -0.619091 55.103870 -2.976270 -3.407248 60.830585 0.148931 -0.392649 -74.192261 -5.458724 -0.331371 -4.694084 4.967261 -0.481316 56.034309 0.342603 -0.043559 
-0.336347 41.652027 -36.064766 -165.058487 0.156250 0.039089 20.725676 -0.537101 -0.322343 -0.009766 0.000000 0.000000 -50.619389 -2.040968 0.390725 5.588009 2.050767 -0.214706 0.000000 0.000000 0.000000 -82.903397 165.520706 -0.390149 -0.687263 -5.954307 6.037358 90.299957 -75.019524 -7.333467 0.000000 0.000000 0.000000 81.272232 -165.322113 -0.025124 -0.042892 3.133475 5.075717 -5.301752 92.377831 78.232094 71.943336 4.033518 -0.400606 54.227036 -2.856702 -3.578799 59.258228 0.068548 -0.371495 -75.937790 -5.458707 -0.573400 -2.731806 4.907760 0.354808 57.226082 0.221065 0.090699 
-0.171880 42.021782 -38.751614 -176.835907 0.166016 0.009794 20.725676 -0.537101 -0.322343 1.562500 0.000000 0.000000 -50.619389 -2.040968 0.390725 5.588009 2.050767 -0.214706 0.000000 0.000000 0.000000 -82.831497 175.698837 0.078548 -0.687263 -5.954307 6.037358 90.299957 -75.019524 -7.333467 0.000000 0.000000 0.000000 81.232803 -175.499985 0.228293 -0.042892 3.133475 5.075717 -5.301752 92.377831 78.232094 68.603592 4.033631 -0.402310 46.114555 -3.167843 -3.111669 60.488750 0.151084 -0.375899 -76.824913 -5.458373 -0.635117 -2.718469 4.905111 0.384978 47.782658 0.198935 0.123283 
-0.149691 41.907410 -41.645679 171.201172 0.000000 -0.175781 20.725676 -0.537101 -0.322343 3.330078 0.000000 0.000000 -50.619389 -2.040968 0.390725 5.588009 2.050767 -0.214706 0.000000 0.000000 0.000000 -82.824532 -174.108414 0.361690 -0.687263 -5.954307 6.037358 90.299957 -75.019524 -7.333467 0.000000 0.000000 0.000000 81.227669 174.302597 0.298336 -0.042892 3.133475 5.075717 -5.301752 92.377831 78.232094 65.253181 4.033537 -0.412415 37.792023 -3.682591 -2.648505 61.201324 0.176173 -0.243820 -77.739456 -5.468475 -0.324251 -2.817705 5.042736 -0.126667 38.113819 0.338286 -0.008347 
